<svg width="684" height="229" viewBox="0 0 684 229" fill="none" xmlns="http://www.w3.org/2000/svg">
<path d="M105.837 40.1255L90.6224 7L11 216.532L105.837 40.1255Z" fill="url(#paint0_linear_7_14)"/>
<path d="M106.09 40.1251L119.784 68.2555L11.7607 215.48L106.09 40.1251Z" fill="url(#paint1_linear_7_14)"/>
<path d="M111.162 149.492L44.4718 170.787L11 216.795L120.798 159.745L111.162 149.492Z" fill="url(#paint2_linear_7_14)"/>
<path d="M161.877 134.507L147.677 136.873L149.959 142.919L161.877 134.507Z" fill="url(#paint3_linear_7_14)"/>
<path d="M122.319 77.7207L103.555 102.959L183.684 225.734L122.319 77.7207Z" fill="#4BDDD2"/>
<path d="M86.3118 125.305L103.301 103.222L183.431 225.47L86.3118 125.305Z" fill="#2BBBA4"/>
<path d="M172.06 159.277V157.66L178.024 154.122L204.811 92.0565H216.435L242.919 154.122L249.894 157.66V159.277H213.504V157.66L222.197 153.92L215.728 138.353H192.175L185.706 153.92L193.995 157.66V159.277H172.06ZM194.5 132.793H213.403L204.002 110.251L194.5 132.793Z" fill="#228270"/>
<path d="M293.162 160.288C287.77 160.288 282.817 159.445 278.302 157.761C273.855 156.076 269.98 153.717 266.678 150.685C263.443 147.652 260.916 144.148 259.096 140.172C257.344 136.129 256.468 131.749 256.468 127.031C256.468 121.842 257.546 117.091 259.703 112.779C261.859 108.466 264.757 104.726 268.396 101.558C272.035 98.391 276.146 95.9313 280.728 94.1792C285.311 92.4271 290.028 91.5511 294.88 91.5511C298.519 91.5511 301.518 91.7532 303.876 92.1576C306.302 92.5619 308.425 93.1347 310.245 93.876C312.132 94.6172 314.052 95.4596 316.006 96.4031L317.523 116.013H315.703L303.775 98.2226C302.63 97.6834 301.45 97.2791 300.237 97.0096C299.024 96.74 297.542 96.6052 295.79 96.6052C292.151 96.6052 288.882 97.8519 285.985 100.345C283.087 102.839 280.796 106.377 279.111 110.959C277.426 115.542 276.584 121 276.584 127.335C276.584 132.928 277.392 137.78 279.01 141.891C280.627 146.001 282.851 149.169 285.681 151.392C288.512 153.616 291.746 154.728 295.385 154.728C297.07 154.728 298.721 154.56 300.338 154.223C301.956 153.886 303.573 153.279 305.19 152.403L316.411 137.14H318.23L316.512 154.829C313.951 156.581 310.514 157.929 306.201 158.873C301.956 159.816 297.609 160.288 293.162 160.288Z" fill="#228270"/>
<path d="M328.861 159.277V157.66L337.858 153.414L339.981 98.3236L330.984 94.1792V92.5619H360.096L378.594 135.32L396.587 92.5619H424.992V94.1792L415.995 97.0096L417.714 153.414L425.8 157.66V159.277H390.421V157.66L398.912 153.515L398.002 106.916L375.663 159.782H369.194L346.349 106.612L345.035 153.515L354.233 157.66V159.277H328.861Z" fill="#228270"/>
<path d="M468.032 151.392C466.01 153.953 464.123 155.874 462.371 157.154C460.619 158.367 458.901 159.176 457.216 159.58C455.531 160.052 453.779 160.288 451.96 160.288C450.41 160.288 449.433 160.086 449.028 159.681C448.691 159.277 448.523 158.502 448.523 157.356V148.158L449.129 147.551H451.757C454.79 147.551 457.283 147.248 459.238 146.642C461.192 146.035 463.112 144.856 464.999 143.104L438.718 98.8291L430.732 94.1792V92.5619H466.313V94.1792L458.833 97.9193L475.714 126.425H476.624L493.505 98.0204L485.62 94.1792V92.5619H507.556V94.1792L501.187 97.7171L478.039 136.432C477.567 137.241 476.894 138.319 476.017 139.667C475.141 141.015 474.198 142.463 473.187 144.013C472.176 145.563 471.199 147.012 470.256 148.36C469.38 149.708 468.638 150.719 468.032 151.392Z" fill="#228270"/>
<path d="M511.084 159.277V157.66L520.08 153.414V98.4247L511.084 94.1792V92.5619H547.07V94.1792L539.286 98.4247V122.179H563.142V98.4247L555.156 94.1792V92.5619H591.142V94.1792L582.348 98.4247V153.414L591.142 157.66V159.277H555.156V157.66L563.142 153.414V127.739H539.286V153.414L547.07 157.66V159.277H511.084Z" fill="#228270"/>
<path d="M604.845 94.1792V92.5619H666.708V94.1792L657.914 98.4247V153.717H668.225V177.068H666.607L655.69 159.277H609.697L598.78 177.068H597.163V153.717H605.957C608.248 147.922 609.933 142.126 611.011 136.331C612.157 130.536 612.898 124.639 613.235 118.641C613.572 112.576 613.741 106.242 613.741 99.6377V98.4247L604.845 94.1792ZM638.708 153.717V98.1215H620.816V99.3345C620.816 106.343 620.648 112.88 620.311 118.945C619.974 124.942 619.3 130.771 618.289 136.432C617.278 142.093 615.796 147.855 613.842 153.717H638.708Z" fill="#228270"/>
<path d="M203.748 72.9745L200.187 63.7209H189.197L185.564 72.9745H183.684L193.976 46.7173H195.658L205.681 72.9745H203.748ZM199.596 62.0564L195.98 52.248C195.885 51.9974 195.766 51.6752 195.623 51.2814C195.491 50.8877 195.348 50.47 195.193 50.0285C195.05 49.587 194.907 49.1694 194.763 48.7756C194.644 49.1933 194.513 49.6109 194.37 50.0285C194.226 50.4462 194.089 50.8519 193.958 51.2456C193.827 51.6275 193.701 51.9735 193.582 52.2838L189.823 62.0564H199.596Z" fill="#228270"/>
<path d="M226.256 46.8068V71.292H228.922V79.5611H227.133V72.9745H208.106V79.5611H206.317V71.292H208.214C209.133 69.7169 209.98 67.933 210.755 65.9403C211.543 63.9357 212.241 61.8356 212.85 59.6401C213.458 57.4445 213.947 55.2489 214.317 53.0534C214.699 50.8578 214.938 48.7756 215.033 46.8068H226.256ZM224.412 48.4893H216.68C216.572 50.2553 216.334 52.1525 215.964 54.181C215.594 56.1976 215.117 58.244 214.532 60.3202C213.959 62.3845 213.303 64.3593 212.563 66.2446C211.823 68.1299 211.036 69.8124 210.201 71.292H224.412V48.4893Z" fill="#228270"/>
<path d="M234.068 46.8068H241.245C244.479 46.8068 246.841 47.3139 248.333 48.3282C249.836 49.3424 250.588 50.9593 250.588 53.1787C250.588 54.181 250.391 55.0938 249.998 55.9172C249.616 56.7405 249.043 57.4326 248.279 57.9934C247.528 58.5423 246.597 58.9181 245.487 59.121V59.2463C246.812 59.4491 247.903 59.819 248.763 60.356C249.634 60.881 250.278 61.5791 250.696 62.4501C251.125 63.3093 251.34 64.3354 251.34 65.5287C251.34 67.2469 250.946 68.6549 250.159 69.7527C249.383 70.8505 248.303 71.6619 246.919 72.1869C245.535 72.7119 243.936 72.9745 242.122 72.9745H234.068V46.8068ZM235.911 58.4409H241.711C244.169 58.4409 245.947 58.0113 247.044 57.1522C248.142 56.293 248.691 55.0222 248.691 53.3398C248.691 51.5976 248.1 50.3447 246.919 49.5811C245.738 48.8174 243.846 48.4356 241.245 48.4356H235.911V58.4409ZM235.911 60.0517V71.3457H242.069C244.491 71.3457 246.316 70.8565 247.545 69.878C248.774 68.8876 249.389 67.414 249.389 65.4571C249.389 64.1684 249.103 63.1303 248.53 62.3427C247.957 61.5433 247.098 60.9645 245.952 60.6066C244.819 60.2367 243.405 60.0517 241.711 60.0517H235.911Z" fill="#228270"/>
<path d="M279.431 59.8548C279.431 61.8475 279.187 63.6672 278.698 65.3139C278.208 66.9606 277.474 68.3805 276.496 69.5737C275.518 70.767 274.294 71.6917 272.827 72.348C271.371 73.0043 269.671 73.3324 267.726 73.3324C265.769 73.3324 264.057 73.0043 262.589 72.348C261.121 71.6917 259.898 70.767 258.92 69.5737C257.953 68.3686 257.225 66.9427 256.736 65.296C256.247 63.6374 256.002 61.8117 256.002 59.819C256.002 57.1701 256.45 54.8373 257.345 52.8207C258.251 50.8041 259.582 49.2291 261.336 48.0955C263.102 46.9619 265.28 46.3951 267.869 46.3951C270.351 46.3951 272.451 46.9381 274.169 48.0239C275.899 49.0978 277.206 50.6431 278.089 52.6596C278.984 54.6643 279.431 57.0627 279.431 59.8548ZM257.935 59.8369C257.935 62.1757 258.287 64.24 258.991 66.0298C259.695 67.8077 260.775 69.1979 262.231 70.2002C263.687 71.2025 265.524 71.7037 267.744 71.7037C269.987 71.7037 271.83 71.2085 273.274 70.2181C274.718 69.2277 275.786 67.8435 276.478 66.0656C277.17 64.2877 277.516 62.2174 277.516 59.8548C277.516 56.12 276.699 53.2204 275.064 51.1561C273.441 49.0918 271.043 48.0597 267.869 48.0597C265.638 48.0597 263.782 48.5549 262.302 49.5453C260.835 50.5357 259.737 51.9139 259.009 53.6798C258.293 55.4458 257.935 57.4982 257.935 59.8369Z" fill="#228270"/>
<path d="M302.941 72.9745H300.596L287.655 59.6401V72.9745H285.812V46.8068H287.655V59.479L300.22 46.8068H302.547L289.928 59.5148L302.941 72.9745Z" fill="#228270"/>
<path d="M323.533 72.9745L319.971 63.7209H308.981L305.348 72.9745H303.468L313.76 46.7173H315.442L325.466 72.9745H323.533ZM319.38 62.0564L315.765 52.248C315.669 51.9974 315.55 51.6752 315.407 51.2814C315.275 50.8877 315.132 50.47 314.977 50.0285C314.834 49.587 314.691 49.1694 314.548 48.7756C314.428 49.1933 314.297 49.6109 314.154 50.0285C314.011 50.4462 313.873 50.8519 313.742 51.2456C313.611 51.6275 313.486 51.9735 313.366 52.2838L309.608 62.0564H319.38Z" fill="#228270"/>
<path d="M336.374 72.9745H334.513V48.4714H326.029V46.8068H344.858V48.4714H336.374V72.9745Z" fill="#228270"/>
<path d="M360.242 48.0955C358.571 48.0955 357.08 48.3819 355.767 48.9546C354.455 49.5154 353.345 50.3149 352.438 51.353C351.531 52.3911 350.839 53.6321 350.362 55.0759C349.885 56.5078 349.646 58.0888 349.646 59.819C349.646 62.2055 350.022 64.2937 350.773 66.0835C351.525 67.8614 352.653 69.2396 354.156 70.2181C355.672 71.1965 357.557 71.6858 359.812 71.6858C361.125 71.6858 362.318 71.5903 363.392 71.3994C364.466 71.1965 365.462 70.94 366.381 70.6298V72.2406C365.51 72.5628 364.526 72.8253 363.428 73.0282C362.342 73.231 361.077 73.3324 359.633 73.3324C357.02 73.3324 354.825 72.7716 353.047 71.65C351.281 70.5283 349.95 68.9533 349.055 66.9248C348.16 64.8963 347.713 62.5277 347.713 59.819C347.713 57.8741 347.993 56.0902 348.554 54.4674C349.115 52.8326 349.932 51.4187 351.006 50.2254C352.092 49.0203 353.411 48.0895 354.962 47.4332C356.513 46.765 358.279 46.4309 360.26 46.4309C361.513 46.4309 362.706 46.5562 363.839 46.8068C364.985 47.0454 366.059 47.3975 367.061 47.8628L366.345 49.4737C365.379 48.9964 364.388 48.6503 363.374 48.4356C362.36 48.2089 361.316 48.0955 360.242 48.0955Z" fill="#228270"/>
<path d="M372.26 72.9745V46.8068H374.104V58.2977H379.366C381.383 58.2977 383.059 58.5542 384.396 59.0673C385.732 59.5804 386.734 60.362 387.402 61.412C388.083 62.4621 388.423 63.8044 388.423 65.4392C388.423 67.8734 387.689 69.7408 386.221 71.0414C384.754 72.3301 382.606 72.9745 379.778 72.9745H372.26ZM374.104 71.3457H379.509C381.86 71.3457 383.614 70.8744 384.771 69.9317C385.941 68.9771 386.525 67.4796 386.525 65.4392C386.525 64.0192 386.227 62.9095 385.631 62.11C385.046 61.3106 384.199 60.7498 383.089 60.4276C381.991 60.1054 380.667 59.9443 379.115 59.9443H374.104V71.3457Z" fill="#228270"/>
<path d="M411.592 72.9745H409.247L396.307 59.6401V72.9745H394.463V46.8068H396.307V59.479L408.871 46.8068H411.198L398.58 59.5148L411.592 72.9745Z" fill="#228270"/>
<path d="M430.108 72.9745H415.807V46.8068H430.108V48.4714H417.65V58.3872H429.41V60.0517H417.65V71.3099H430.108V72.9745Z" fill="#228270"/>
<path d="M468.338 59.8548C468.338 61.8475 468.094 63.6672 467.604 65.3139C467.115 66.9606 466.381 68.3805 465.403 69.5737C464.424 70.767 463.201 71.6917 461.734 72.348C460.278 73.0043 458.578 73.3324 456.633 73.3324C454.676 73.3324 452.963 73.0043 451.496 72.348C450.028 71.6917 448.805 70.767 447.827 69.5737C446.86 68.3686 446.132 66.9427 445.643 65.296C445.154 63.6374 444.909 61.8117 444.909 59.819C444.909 57.1701 445.357 54.8373 446.251 52.8207C447.158 50.8041 448.489 49.2291 450.243 48.0955C452.009 46.9619 454.186 46.3951 456.776 46.3951C459.258 46.3951 461.358 46.9381 463.076 48.0239C464.806 49.0978 466.113 50.6431 466.996 52.6596C467.891 54.6643 468.338 57.0627 468.338 59.8548ZM446.842 59.8369C446.842 62.1757 447.194 64.24 447.898 66.0298C448.602 67.8077 449.682 69.1979 451.138 70.2002C452.593 71.2025 454.431 71.7037 456.651 71.7037C458.894 71.7037 460.737 71.2085 462.181 70.2181C463.625 69.2277 464.693 67.8435 465.385 66.0656C466.077 64.2877 466.423 62.2174 466.423 59.8548C466.423 56.12 465.606 53.2204 463.971 51.1561C462.348 49.0918 459.95 48.0597 456.776 48.0597C454.544 48.0597 452.689 48.5549 451.209 49.5453C449.742 50.5357 448.644 51.9139 447.916 53.6798C447.2 55.4458 446.842 57.4982 446.842 59.8369Z" fill="#228270"/>
<path d="M474.719 72.9745V46.8068H489.342V48.4714H476.562V58.2977H481.449C483.525 58.2977 485.231 58.5542 486.568 59.0673C487.904 59.5685 488.894 60.3441 489.539 61.3941C490.195 62.4442 490.523 63.7925 490.523 65.4392C490.523 67.8972 489.807 69.7706 488.375 71.0593C486.955 72.3361 484.79 72.9745 481.878 72.9745H474.719ZM476.562 71.3457H481.61C484.044 71.3457 485.816 70.8744 486.925 69.9317C488.047 68.9771 488.608 67.4796 488.608 65.4392C488.608 64.0192 488.328 62.9095 487.767 62.11C487.206 61.3106 486.371 60.7498 485.261 60.4276C484.163 60.1054 482.803 59.9443 481.18 59.9443H476.562V71.3457Z" fill="#228270"/>
<path d="M497.637 46.8068L497.888 47.1648C497.709 48.1074 497.47 49.0799 497.172 50.0822C496.874 51.0846 496.546 52.069 496.188 53.0355C495.83 54.002 495.454 54.9148 495.06 55.774H493.771C494.01 55.1177 494.243 54.4077 494.469 53.644C494.696 52.8684 494.899 52.0809 495.078 51.2814C495.269 50.482 495.43 49.7004 495.561 48.9367C495.704 48.1731 495.818 47.4631 495.901 46.8068H497.637Z" fill="#228270"/>
<path d="M513.808 48.0955C512.209 48.0955 510.778 48.3461 509.513 48.8472C508.248 49.3365 507.162 50.0464 506.255 50.9772C505.348 51.9079 504.632 53.0236 504.107 54.3242C503.582 55.6129 503.272 57.0507 503.177 58.6377H517.138V60.2844H503.141C503.177 62.0385 503.415 63.6195 503.857 65.0275C504.298 66.4236 504.943 67.6168 505.79 68.6072C506.649 69.5976 507.711 70.3613 508.976 70.8982C510.241 71.4233 511.708 71.6858 513.379 71.6858C514.703 71.6858 515.909 71.5903 516.994 71.3994C518.092 71.1965 519.106 70.94 520.037 70.6298V72.2406C519.178 72.5628 518.182 72.8253 517.048 73.0282C515.914 73.231 514.638 73.3324 513.218 73.3324C510.533 73.3324 508.302 72.7716 506.524 71.65C504.746 70.5164 503.415 68.9354 502.532 66.9069C501.649 64.8784 501.208 62.5158 501.208 59.819C501.208 57.8621 501.488 56.0663 502.049 54.4316C502.61 52.7968 503.427 51.3829 504.501 50.1896C505.587 48.9845 506.911 48.0537 508.475 47.3975C510.05 46.7412 511.834 46.413 513.826 46.413C515.175 46.413 516.41 46.5383 517.531 46.7889C518.653 47.0395 519.721 47.4034 520.735 47.8807L520.001 49.5095C519.023 48.9964 518.021 48.6325 516.994 48.4177C515.968 48.2029 514.906 48.0955 513.808 48.0955Z" fill="#228270"/>
<path d="M542.258 46.8068V71.292H544.925V79.5611H543.135V72.9745H524.109V79.5611H522.319V71.292H524.216C525.135 69.7169 525.982 67.933 526.758 65.9403C527.545 63.9357 528.243 61.8356 528.852 59.6401C529.46 57.4445 529.95 55.2489 530.319 53.0534C530.701 50.8578 530.94 48.7756 531.035 46.8068H542.258ZM540.414 48.4893H532.682C532.575 50.2553 532.336 52.1525 531.966 54.181C531.596 56.1976 531.119 58.244 530.534 60.3202C529.961 62.3845 529.305 64.3593 528.565 66.2446C527.826 68.1299 527.038 69.8124 526.203 71.292H540.414V48.4893Z" fill="#228270"/>
<path d="M569.043 72.9745H567.199V60.0875H551.914V72.9745H550.07V46.8068H551.914V58.4051H567.199V46.8068H569.043V72.9745Z" fill="#228270"/>
<path d="M593.196 72.9745L589.634 63.7209H578.645L575.011 72.9745H573.132L583.424 46.7173H585.106L595.129 72.9745H593.196ZM589.044 62.0564L585.428 52.248C585.333 51.9974 585.214 51.6752 585.07 51.2814C584.939 50.8877 584.796 50.47 584.641 50.0285C584.498 49.587 584.354 49.1694 584.211 48.7756C584.092 49.1933 583.961 49.6109 583.817 50.0285C583.674 50.4462 583.537 50.8519 583.406 51.2456C583.275 51.6275 583.149 51.9735 583.03 52.2838L579.271 62.0564H589.044Z" fill="#228270"/>
<path d="M618.173 72.9745H616.33V60.0875H601.044V72.9745H599.201V46.8068H601.044V58.4051H616.33V46.8068H618.173V72.9745Z" fill="#228270"/>
<path d="M644.922 72.9745H643.079V60.0875H627.793V72.9745H625.95V46.8068H627.793V58.4051H643.079V46.8068H644.922V72.9745Z" fill="#228270"/>
<path d="M659.035 61.591L652.108 72.9745H649.907L657.138 61.233C656.064 60.9944 655.097 60.6066 654.238 60.0696C653.379 59.5327 652.699 58.7929 652.198 57.8502C651.697 56.8956 651.446 55.6904 651.446 54.2347C651.446 51.717 652.257 49.8496 653.88 48.6325C655.515 47.4154 657.872 46.8068 660.95 46.8068H667.322V72.9745H665.496V61.591H659.035ZM665.496 48.4356H661.093C659.399 48.4356 657.973 48.6325 656.816 49.0262C655.67 49.42 654.799 50.0464 654.202 50.9056C653.618 51.7528 653.325 52.8684 653.325 54.2526C653.325 56.1737 653.928 57.6056 655.133 58.5482C656.338 59.479 658.068 59.9443 660.324 59.9443H665.496V48.4356Z" fill="#228270"/>
<defs>
<linearGradient id="paint0_linear_7_14" x1="44.979" y1="137.924" x2="0.615008" y2="228.173" gradientUnits="userSpaceOnUse">
<stop stop-color="#4BDDD2"/>
<stop offset="1" stop-color="white" stop-opacity="0.08"/>
</linearGradient>
<linearGradient id="paint1_linear_7_14" x1="86.5652" y1="90.3391" x2="11.4966" y2="209.126" gradientUnits="userSpaceOnUse">
<stop offset="0.601824" stop-color="#2BBBA4"/>
<stop offset="1" stop-color="white" stop-opacity="0.03"/>
</linearGradient>
<linearGradient id="paint2_linear_7_14" x1="199.406" y1="110.32" x2="16.2342" y2="211.099" gradientUnits="userSpaceOnUse">
<stop stop-color="#2BBBA4"/>
<stop offset="1" stop-color="#2BBBA4" stop-opacity="0"/>
</linearGradient>
<linearGradient id="paint3_linear_7_14" x1="199.406" y1="110.32" x2="16.2342" y2="211.099" gradientUnits="userSpaceOnUse">
<stop stop-color="#2BBBA4"/>
<stop offset="1" stop-color="#2BBBA4" stop-opacity="0"/>
</linearGradient>
</defs>
</svg>
